<svg width="742" height="216" viewBox="0 0 742 216" fill="none" xmlns="http://www.w3.org/2000/svg">
<path d="M223.336 71.8719C236.676 86.3855 244.624 105.056 245.845 124.747C247.066 144.438 241.486 163.95 230.042 180.006C218.598 196.062 201.988 207.684 183.001 212.919C164.014 218.155 143.806 216.685 125.773 208.757C107.74 200.829 92.9794 186.925 83.9707 169.381C74.962 151.838 72.2539 131.723 76.3014 112.415C80.3488 93.1071 90.9052 75.7827 106.197 63.3517C121.49 50.9206 140.586 44.1402 160.279 44.1492L160.267 70.5835C146.632 70.5773 133.411 75.2718 122.823 83.8785C112.236 92.4852 104.927 104.48 102.125 117.848C99.3222 131.216 101.197 145.142 107.434 157.289C113.672 169.435 123.891 179.062 136.377 184.551C148.862 190.04 162.853 191.057 175.999 187.433C189.144 183.808 200.645 175.761 208.568 164.645C216.491 153.528 220.355 140.019 219.509 126.386C218.664 112.753 213.161 99.8261 203.925 89.7775L223.336 71.8719Z" fill="black"/>
<path d="M50.9316 4.39018C53.0924 3.37864 56.8453 1.97371 59.1766 1.29934C62.0197 0.456389 65.0902 0.0630092 68.5588 0.00681213C72.5392 -0.0493849 74.5293 0.2316 77.3724 1.24315C79.4194 1.91751 82.2057 3.15385 83.6272 3.94061C85.0488 4.78356 87.6644 7.03144 89.5409 8.99834C91.3605 10.9652 93.2369 13.2131 93.6349 13.9999C94.3741 15.3486 94.2604 15.461 90.2801 17.7651C88.0056 19.0576 85.9586 20.1254 85.6174 20.1254C85.2762 20.1254 84.4233 19.1138 83.6272 17.8213C82.8312 16.5849 81.1822 14.7866 79.9312 13.8875C78.6802 12.9883 76.4058 11.8644 74.8136 11.4148C73.2784 10.9652 70.7196 10.6281 69.1274 10.6281C67.5922 10.6281 64.351 11.0776 62.0197 11.6958C59.6884 12.2578 56.3335 13.4379 54.6277 14.2809C52.9218 15.1238 49.965 16.8659 48.0885 18.1585C46.2121 19.3948 43.1984 21.8675 41.4357 23.6658C39.6161 25.4641 36.8299 28.8921 35.2946 31.3086C33.7025 33.6689 31.8829 36.9845 31.3143 38.6142C30.6888 40.1877 29.9496 43.2224 29.6653 45.3016C29.3241 47.7181 29.3241 50.3594 29.6653 52.4949C29.9496 54.3494 30.9731 57.384 31.8829 59.2385C32.7927 61.093 35.124 64.4086 37.0573 66.5441C38.9338 68.6796 41.6063 71.9953 42.971 73.8498C44.3356 75.7043 46.4964 79.3571 47.7474 81.9983C49.0552 84.6396 50.4767 88.5734 50.9316 90.7089C51.3865 92.8444 51.7846 96.0476 51.7846 97.7335C51.7846 99.4194 51.2728 102.847 50.6473 105.32C49.965 107.849 48.4866 111.446 47.2925 113.469C46.0984 115.492 43.4827 118.639 41.4926 120.493C39.4455 122.348 36.0338 124.764 33.8731 125.944C31.6554 127.068 28.4712 128.361 26.7653 128.81C25.0595 129.316 22.2164 129.822 20.5105 130.047C18.8046 130.215 15.6204 130.103 13.4028 129.766C11.1852 129.429 7.65971 128.305 5.4421 127.237C3.28135 126.225 1.00687 124.933 0.438251 124.315C-0.528402 123.359 -0.414678 123.135 6.29503 115.717L9.30871 117.29C10.9008 118.189 13.5734 119.088 15.1086 119.313C16.7008 119.538 19.4301 119.482 21.3634 119.145C23.2399 118.807 26.3673 117.74 28.3575 116.841C30.2908 115.885 33.1907 113.918 34.726 112.345C36.3181 110.827 38.2514 108.074 39.1044 106.332C40.071 104.252 40.6965 101.723 40.8671 99.4194C40.9808 97.3963 40.8102 94.3617 40.469 92.6758C40.071 90.9899 38.9338 87.7866 37.8534 85.6511C36.7161 83.4032 33.5887 78.9637 30.4613 75.2547C27.0496 71.2085 24.1497 67.1061 22.7281 64.2963C21.4772 61.8236 20.1125 58.0022 19.6576 55.8667C19.2027 53.7312 18.8046 50.4156 18.8046 48.5611C18.8046 46.7066 19.089 43.6719 19.4301 41.8174C19.7713 39.9629 20.8517 36.4225 21.8183 33.9498C22.785 31.4772 25.0026 27.3186 26.8222 24.6773C28.5849 22.0361 32.0535 17.9899 34.4985 15.6858C37.0005 13.3817 40.8102 10.2909 42.971 8.82975C45.1317 7.36863 48.7709 5.40173 50.9316 4.39018Z" fill="black"/>
<path d="M61.4511 46.7628C61.4511 46.4818 76.6332 37.6588 95.1702 27.0938C113.65 16.5287 129.003 7.8744 129.287 7.8182C129.515 7.8182 132.415 12.5388 135.77 18.3833C139.068 24.1715 142.138 29.3979 142.593 30.016C143.275 31.0838 143.105 31.1962 137.76 32.4887C134.746 33.2193 129.685 34.6804 126.558 35.7481C123.431 36.8159 117.574 39.2886 113.48 41.2555C109.386 43.2224 103.756 46.3694 100.97 48.2239C98.1839 50.0784 93.8055 53.1692 91.3036 55.1923C88.8017 57.1592 84.139 61.4864 75.0979 70.7589L68.2745 58.9575C64.5216 52.4387 61.4511 46.9876 61.4511 46.7628Z" fill="black"/>
<path d="M156.252 112.432C156.252 119.062 150.475 124.436 143.348 124.436C136.222 124.436 130.445 119.062 130.445 112.432C130.445 105.803 136.222 100.429 143.348 100.429C150.475 100.429 156.252 105.803 156.252 112.432Z" fill="black"/>
<path d="M191.276 112.432C191.276 119.062 185.499 124.436 178.372 124.436C171.246 124.436 165.469 119.062 165.469 112.432C165.469 105.803 171.246 100.429 178.372 100.429C185.499 100.429 191.276 105.803 191.276 112.432Z" fill="black"/>
<path d="M200.493 152.137C200.493 146.26 198.163 140.623 194.014 136.467C189.866 132.311 184.239 129.976 178.373 129.976C172.506 129.976 166.88 132.311 162.731 136.467C158.583 140.623 156.252 146.26 156.252 152.137H200.493Z" fill="black"/>
<path d="M165.469 152.137C165.469 146.26 163.138 140.623 158.99 136.467C154.842 132.311 149.215 129.976 143.348 129.976C137.482 129.976 131.855 132.311 127.707 136.467C123.559 140.623 121.228 146.26 121.228 152.137H165.469Z" fill="black"/>
<path d="M324.212 105.737V81.63H300.102V105.737H324.212ZM324.212 73.6016V57.5233H300.102V73.6016H324.212ZM284.022 113.765V49.4949H332.241V57.5233H340.271V73.6016H332.241V81.63H340.271V105.737H332.241V113.765H284.022Z" fill="black"/>
<path d="M352.315 113.765V49.4949H368.395V105.737H400.534V113.765H352.315Z" fill="black"/>
<path d="M412.579 113.765V105.737H428.659V57.5233H412.579V49.4949H460.798V57.5233H444.718V105.737H460.798V113.765H412.579Z" fill="black"/>
<path d="M472.842 113.765V49.4949H480.872V57.5233H488.923V65.5516H496.952V73.6016H504.981V81.63H513.032V49.4949H529.091V113.765H521.062V105.737H513.032V97.7083H504.981V89.6584H496.952V81.63H488.923V113.765H472.842Z" fill="black"/>
<path d="M573.275 105.737V97.7083H581.326V65.5516H573.275V57.5233H557.216V105.737H573.275ZM541.135 113.765V49.4949H581.326V57.5233H589.355V65.5516H597.384V97.7083H589.355V105.737H581.326V113.765H541.135Z" fill="black"/>
<path d="M316.161 203.36V195.331H324.212V163.174H316.161V155.146H300.102V203.36H316.161ZM284.022 211.388V147.118H324.212V155.146H332.241V163.174H340.271V195.331H332.241V203.36H324.212V211.388H284.022Z" fill="black"/>
<path d="M352.315 211.388V147.118H408.564V155.146H368.395V171.224H392.505V179.253H368.395V203.36H408.564V211.388H352.315Z" fill="black"/>
<path d="M420.608 211.388V147.118H476.857V155.146H436.688V171.224H460.798V179.253H436.688V211.388H420.608Z" fill="black"/>
<path d="M496.93 211.388V203.36H488.901V147.118H504.981V203.36H529.091V147.118H545.15V203.36H537.121V211.388H496.93Z" fill="black"/>
<path d="M565.224 211.388V203.36H557.194V195.331H573.275V203.36H597.384V179.253H565.224V171.224H557.194V155.146H565.224V147.118H605.414V155.146H613.443V163.174H597.384V155.146H573.275V171.224H605.414V179.253H613.443V203.36H605.414V211.388H565.224Z" fill="black"/>
<path d="M665.677 179.253V163.174H657.626V155.146H649.597V163.174H641.568V179.253H665.677ZM625.487 211.388V163.174H633.517V155.146H641.568V147.118H665.677V155.146H673.707V163.174H681.736V211.388H665.677V187.281H641.568V211.388H625.487Z" fill="black"/>
<path d="M693.78 211.388V147.118H709.861V203.36H742V211.388H693.78Z" fill="black"/>
</svg>
